<svg width="356" height="52" viewBox="0 0 356 52" fill="none" xmlns="http://www.w3.org/2000/svg">
<rect x="5.91699" y="8" width="79.8781" height="21" rx="3" fill="#565D67"/>
<path d="M27.647 13.7578L30.6685 21.2988L33.6899 13.7578H35.2705V23H34.0518V19.4009L34.166 15.5161L31.1318 23H30.1987L27.1709 15.5352L27.2915 19.4009V23H26.0728V13.7578H27.647ZM36.9272 19.5024C36.9272 18.8296 37.0584 18.2244 37.3208 17.687C37.5874 17.1496 37.9556 16.7349 38.4253 16.4429C38.8993 16.1509 39.4388 16.0049 40.0439 16.0049C40.9792 16.0049 41.7345 16.3286 42.3101 16.9761C42.8898 17.6235 43.1797 18.4847 43.1797 19.5596V19.6421C43.1797 20.3107 43.0506 20.9116 42.7925 21.4448C42.5386 21.9738 42.1725 22.3864 41.6943 22.6826C41.2204 22.9788 40.6745 23.127 40.0566 23.127C39.1257 23.127 38.3703 22.8032 37.7905 22.1558C37.215 21.5083 36.9272 20.6514 36.9272 19.585V19.5024ZM38.1079 19.6421C38.1079 20.4038 38.2835 21.0153 38.6348 21.4766C38.9902 21.9378 39.4642 22.1685 40.0566 22.1685C40.6533 22.1685 41.1273 21.9357 41.4785 21.4702C41.8298 21.0005 42.0054 20.3446 42.0054 19.5024C42.0054 18.7492 41.8255 18.1398 41.4658 17.6743C41.1104 17.2046 40.6364 16.9697 40.0439 16.9697C39.4642 16.9697 38.9966 17.2004 38.6411 17.6616C38.2856 18.1229 38.1079 18.783 38.1079 19.6421ZM45.7632 16.1318L45.8013 16.9951C46.326 16.335 47.0116 16.0049 47.8579 16.0049C49.3094 16.0049 50.0415 16.8237 50.0542 18.4614V23H48.8799V18.4551C48.8757 17.96 48.7614 17.5939 48.5371 17.3569C48.3171 17.12 47.9722 17.0015 47.5024 17.0015C47.1216 17.0015 46.7873 17.103 46.4995 17.3062C46.2118 17.5093 45.9875 17.7759 45.8267 18.106V23H44.6523V16.1318H45.7632ZM53.4185 14.4688V16.1318H54.7007V17.0396H53.4185V21.2988C53.4185 21.5739 53.4756 21.7812 53.5898 21.9209C53.7041 22.0563 53.8988 22.124 54.1738 22.124C54.3092 22.124 54.4954 22.0986 54.7324 22.0479V23C54.4235 23.0846 54.123 23.127 53.8311 23.127C53.3063 23.127 52.9106 22.9683 52.644 22.6509C52.3774 22.3335 52.2441 21.8828 52.2441 21.2988V17.0396H50.9937V16.1318H52.2441V14.4688H53.4185ZM55.6401 19.5024C55.6401 18.8296 55.7713 18.2244 56.0337 17.687C56.3003 17.1496 56.6685 16.7349 57.1382 16.4429C57.6121 16.1509 58.1517 16.0049 58.7568 16.0049C59.6921 16.0049 60.4474 16.3286 61.0229 16.9761C61.6027 17.6235 61.8926 18.4847 61.8926 19.5596V19.6421C61.8926 20.3107 61.7635 20.9116 61.5054 21.4448C61.2515 21.9738 60.8854 22.3864 60.4072 22.6826C59.9333 22.9788 59.3874 23.127 58.7695 23.127C57.8385 23.127 57.0832 22.8032 56.5034 22.1558C55.9279 21.5083 55.6401 20.6514 55.6401 19.585V19.5024ZM56.8208 19.6421C56.8208 20.4038 56.9964 21.0153 57.3477 21.4766C57.7031 21.9378 58.1771 22.1685 58.7695 22.1685C59.3662 22.1685 59.8402 21.9357 60.1914 21.4702C60.5426 21.0005 60.7183 20.3446 60.7183 19.5024C60.7183 18.7492 60.5384 18.1398 60.1787 17.6743C59.8232 17.2046 59.3493 16.9697 58.7568 16.9697C58.1771 16.9697 57.7095 17.2004 57.354 17.6616C56.9985 18.1229 56.8208 18.783 56.8208 19.6421Z" fill="white"/>
<path d="M22.4624 41.2612H20.2915V45H19.0664V35.7578H22.126C23.167 35.7578 23.9668 35.9948 24.5254 36.4688C25.0882 36.9427 25.3696 37.6325 25.3696 38.5381C25.3696 39.1136 25.2131 39.6151 24.8999 40.0425C24.591 40.4699 24.1593 40.7894 23.605 41.001L25.7759 44.9238V45H24.4683L22.4624 41.2612ZM20.2915 40.2646H22.1641C22.7692 40.2646 23.2495 40.1081 23.605 39.7949C23.9647 39.4818 24.1445 39.0628 24.1445 38.5381C24.1445 37.9668 23.9731 37.5288 23.6304 37.2241C23.2918 36.9194 22.8009 36.765 22.1577 36.7607H20.2915V40.2646ZM27.0835 45V35.7578H29.6924C30.4964 35.7578 31.2074 35.9355 31.8252 36.291C32.443 36.6465 32.9191 37.1522 33.2534 37.8081C33.592 38.464 33.7633 39.2173 33.7676 40.0679V40.6582C33.7676 41.5299 33.5983 42.2938 33.2598 42.9497C32.9255 43.6056 32.4451 44.1092 31.8188 44.4604C31.1968 44.8117 30.471 44.9915 29.6416 45H27.0835ZM28.3022 36.7607V44.0034H29.5845C30.5239 44.0034 31.2539 43.7114 31.7744 43.1274C32.2992 42.5435 32.5615 41.7119 32.5615 40.6328V40.0933C32.5615 39.0438 32.314 38.2292 31.8188 37.6494C31.328 37.0654 30.6297 36.7692 29.7241 36.7607H28.3022ZM39.9756 42.6196C39.9756 42.2303 39.8381 41.9023 39.563 41.6357C39.2922 41.3691 38.833 41.1279 38.1855 40.9121C37.2842 40.637 36.6261 40.2795 36.2114 39.8394C35.8009 39.395 35.5957 38.8322 35.5957 38.1509C35.5957 37.4569 35.7967 36.8877 36.1987 36.4434C36.605 35.999 37.1615 35.7345 37.8682 35.6499V34.2598H38.814V35.6562C39.5249 35.7536 40.0771 36.0519 40.4707 36.5513C40.8685 37.0506 41.0674 37.734 41.0674 38.6016H39.8994C39.8994 38.0049 39.7576 37.5309 39.4741 37.1797C39.1906 36.8285 38.8076 36.6528 38.3252 36.6528C37.8216 36.6528 37.4365 36.784 37.1699 37.0464C36.9033 37.3045 36.77 37.6663 36.77 38.1318C36.77 38.5635 36.9097 38.9084 37.189 39.1665C37.4725 39.4204 37.9359 39.6532 38.5791 39.8647C39.2266 40.0721 39.7301 40.3027 40.0898 40.5566C40.4538 40.8063 40.7204 41.0983 40.8896 41.4326C41.0632 41.7669 41.1499 42.1584 41.1499 42.6069C41.1499 43.3221 40.9341 43.8976 40.5024 44.3335C40.075 44.7694 39.4741 45.0275 38.6997 45.1079V46.3203H37.7603V45.1079C36.9731 45.036 36.3553 44.7567 35.9067 44.27C35.4624 43.7791 35.2402 43.1147 35.2402 42.2769H36.4146C36.4146 42.8651 36.569 43.3179 36.8779 43.6353C37.1868 43.9526 37.6248 44.1113 38.1919 44.1113C38.7463 44.1113 39.1821 43.978 39.4995 43.7114C39.8169 43.4448 39.9756 43.0809 39.9756 42.6196ZM49.6938 45H48.5132V37.1733L46.1455 38.043V36.9766L49.5098 35.7134H49.6938V45ZM53.2803 44.3843C53.2803 44.1812 53.3395 44.0119 53.458 43.8765C53.5807 43.741 53.7627 43.6733 54.0039 43.6733C54.2451 43.6733 54.4271 43.741 54.5498 43.8765C54.6768 44.0119 54.7402 44.1812 54.7402 44.3843C54.7402 44.5789 54.6768 44.7419 54.5498 44.873C54.4271 45.0042 54.2451 45.0698 54.0039 45.0698C53.7627 45.0698 53.5807 45.0042 53.458 44.873C53.3395 44.7419 53.2803 44.5789 53.2803 44.3843ZM62.3574 41.0581C62.3574 42.4334 62.1226 43.4554 61.6528 44.124C61.1831 44.7926 60.4489 45.127 59.4502 45.127C58.4642 45.127 57.7342 44.8011 57.2603 44.1494C56.7863 43.4935 56.5409 42.516 56.5239 41.2168V39.6489C56.5239 38.2905 56.7588 37.2812 57.2285 36.6211C57.6982 35.9609 58.4346 35.6309 59.4375 35.6309C60.432 35.6309 61.1641 35.9504 61.6338 36.5894C62.1035 37.2241 62.3447 38.2059 62.3574 39.5347V41.0581ZM61.1831 39.4521C61.1831 38.4577 61.0435 37.734 60.7642 37.2812C60.4849 36.8242 60.0426 36.5957 59.4375 36.5957C58.8366 36.5957 58.3986 36.8221 58.1235 37.2749C57.8485 37.7277 57.7067 38.4238 57.6982 39.3633V41.2422C57.6982 42.2409 57.8421 42.9793 58.1299 43.4575C58.4219 43.9315 58.862 44.1685 59.4502 44.1685C60.0299 44.1685 60.4595 43.9442 60.7388 43.4956C61.0223 43.047 61.1704 42.3403 61.1831 41.3755V39.4521ZM69.6572 41.0581C69.6572 42.4334 69.4224 43.4554 68.9526 44.124C68.4829 44.7926 67.7487 45.127 66.75 45.127C65.764 45.127 65.034 44.8011 64.5601 44.1494C64.0861 43.4935 63.8407 42.516 63.8237 41.2168V39.6489C63.8237 38.2905 64.0586 37.2812 64.5283 36.6211C64.998 35.9609 65.7344 35.6309 66.7373 35.6309C67.7318 35.6309 68.4639 35.9504 68.9336 36.5894C69.4033 37.2241 69.6445 38.2059 69.6572 39.5347V41.0581ZM68.4829 39.4521C68.4829 38.4577 68.3433 37.734 68.064 37.2812C67.7847 36.8242 67.3424 36.5957 66.7373 36.5957C66.1364 36.5957 65.6984 36.8221 65.4233 37.2749C65.1483 37.7277 65.0065 38.4238 64.998 39.3633V41.2422C64.998 42.2409 65.1419 42.9793 65.4297 43.4575C65.7217 43.9315 66.1618 44.1685 66.75 44.1685C67.3298 44.1685 67.7593 43.9442 68.0386 43.4956C68.3221 43.047 68.4702 42.3403 68.4829 41.3755V39.4521Z" fill="#565D67"/>
<path d="M95.6274 45H94.4468V37.1733L92.0791 38.043V36.9766L95.4434 35.7134H95.6274V45ZM103.568 40.9375C103.323 41.2295 103.029 41.4644 102.686 41.6421C102.347 41.8198 101.975 41.9087 101.569 41.9087C101.036 41.9087 100.57 41.7775 100.172 41.5151C99.7788 41.2528 99.4741 40.8846 99.2583 40.4106C99.0425 39.9325 98.9346 39.4056 98.9346 38.8301C98.9346 38.2122 99.0509 37.6558 99.2837 37.1606C99.5207 36.6655 99.855 36.2868 100.287 36.0244C100.718 35.762 101.222 35.6309 101.797 35.6309C102.711 35.6309 103.431 35.9736 103.956 36.6592C104.485 37.3405 104.749 38.2715 104.749 39.4521V39.7949C104.749 41.5934 104.394 42.9074 103.683 43.7368C102.972 44.562 101.899 44.9852 100.464 45.0063H100.236V44.0161H100.483C101.452 43.9992 102.197 43.7474 102.718 43.2607C103.238 42.7699 103.522 41.9954 103.568 40.9375ZM101.759 40.9375C102.153 40.9375 102.515 40.8169 102.845 40.5757C103.179 40.3345 103.422 40.0361 103.575 39.6807V39.2109C103.575 38.4408 103.408 37.8145 103.073 37.332C102.739 36.8496 102.316 36.6084 101.804 36.6084C101.287 36.6084 100.873 36.8073 100.56 37.2051C100.246 37.5986 100.09 38.1191 100.09 38.7666C100.09 39.3971 100.24 39.9176 100.541 40.3281C100.845 40.7344 101.251 40.9375 101.759 40.9375ZM106.723 45.7935H105.714L109.573 35.7578H110.576L106.723 45.7935ZM117.521 41.0581C117.521 42.4334 117.286 43.4554 116.816 44.124C116.346 44.7926 115.612 45.127 114.613 45.127C113.627 45.127 112.897 44.8011 112.423 44.1494C111.949 43.4935 111.704 42.516 111.687 41.2168V39.6489C111.687 38.2905 111.922 37.2812 112.392 36.6211C112.861 35.9609 113.598 35.6309 114.601 35.6309C115.595 35.6309 116.327 35.9504 116.797 36.5894C117.267 37.2241 117.508 38.2059 117.521 39.5347V41.0581ZM116.346 39.4521C116.346 38.4577 116.207 37.734 115.927 37.2812C115.648 36.8242 115.206 36.5957 114.601 36.5957C114 36.5957 113.562 36.8221 113.287 37.2749C113.012 37.7277 112.87 38.4238 112.861 39.3633V41.2422C112.861 42.2409 113.005 42.9793 113.293 43.4575C113.585 43.9315 114.025 44.1685 114.613 44.1685C115.193 44.1685 115.623 43.9442 115.902 43.4956C116.185 43.047 116.333 42.3403 116.346 41.3755V39.4521ZM123.633 35.7515V36.748H123.417C122.503 36.765 121.776 37.0358 121.234 37.5605C120.692 38.0853 120.379 38.8237 120.294 39.7759C120.781 39.2173 121.445 38.938 122.288 38.938C123.092 38.938 123.733 39.2215 124.211 39.7886C124.693 40.3556 124.935 41.0877 124.935 41.9849C124.935 42.937 124.674 43.6987 124.154 44.27C123.638 44.8413 122.944 45.127 122.072 45.127C121.187 45.127 120.47 44.7884 119.92 44.1113C119.37 43.43 119.095 42.554 119.095 41.4834V41.0327C119.095 39.3315 119.457 38.0324 120.18 37.1353C120.908 36.2339 121.989 35.7726 123.424 35.7515H123.633ZM122.091 39.9155C121.689 39.9155 121.319 40.0361 120.98 40.2773C120.641 40.5186 120.407 40.8211 120.275 41.1851V41.6167C120.275 42.3784 120.447 42.992 120.79 43.4575C121.132 43.923 121.56 44.1558 122.072 44.1558C122.601 44.1558 123.015 43.9611 123.316 43.5718C123.621 43.1825 123.773 42.6725 123.773 42.042C123.773 41.4072 123.618 40.8952 123.31 40.5059C123.005 40.1123 122.599 39.9155 122.091 39.9155ZM126.68 45.7935H125.671L129.53 35.7578H130.533L126.68 45.7935ZM137.738 45H131.682V44.1558L134.881 40.6011C135.355 40.0636 135.681 39.6278 135.859 39.2935C136.041 38.9549 136.132 38.6058 136.132 38.2461C136.132 37.7637 135.986 37.368 135.694 37.0591C135.402 36.7502 135.013 36.5957 134.526 36.5957C133.942 36.5957 133.487 36.7629 133.161 37.0972C132.84 37.4272 132.679 37.8885 132.679 38.481H131.504C131.504 37.6304 131.777 36.9427 132.323 36.418C132.873 35.8932 133.608 35.6309 134.526 35.6309C135.385 35.6309 136.064 35.8573 136.563 36.3101C137.063 36.7586 137.312 37.3574 137.312 38.1064C137.312 39.0163 136.733 40.0996 135.573 41.3564L133.098 44.0415H137.738V45ZM144.777 41.0581C144.777 42.4334 144.542 43.4554 144.073 44.124C143.603 44.7926 142.869 45.127 141.87 45.127C140.884 45.127 140.154 44.8011 139.68 44.1494C139.206 43.4935 138.961 42.516 138.944 41.2168V39.6489C138.944 38.2905 139.179 37.2812 139.648 36.6211C140.118 35.9609 140.854 35.6309 141.857 35.6309C142.852 35.6309 143.584 35.9504 144.054 36.5894C144.523 37.2241 144.765 38.2059 144.777 39.5347V41.0581ZM143.603 39.4521C143.603 38.4577 143.463 37.734 143.184 37.2812C142.905 36.8242 142.463 36.5957 141.857 36.5957C141.257 36.5957 140.819 36.8221 140.543 37.2749C140.268 37.7277 140.127 38.4238 140.118 39.3633V41.2422C140.118 42.2409 140.262 42.9793 140.55 43.4575C140.842 43.9315 141.282 44.1685 141.87 44.1685C142.45 44.1685 142.879 43.9442 143.159 43.4956C143.442 43.047 143.59 42.3403 143.603 41.3755V39.4521ZM152.337 45H146.282V44.1558L149.481 40.6011C149.955 40.0636 150.281 39.6278 150.458 39.2935C150.64 38.9549 150.731 38.6058 150.731 38.2461C150.731 37.7637 150.585 37.368 150.293 37.0591C150.001 36.7502 149.612 36.5957 149.125 36.5957C148.542 36.5957 148.087 36.7629 147.761 37.0972C147.439 37.4272 147.278 37.8885 147.278 38.481H146.104C146.104 37.6304 146.377 36.9427 146.923 36.418C147.473 35.8932 148.207 35.6309 149.125 35.6309C149.985 35.6309 150.664 35.8573 151.163 36.3101C151.662 36.7586 151.912 37.3574 151.912 38.1064C151.912 39.0163 151.332 40.0996 150.173 41.3564L147.697 44.0415H152.337V45ZM159.377 41.0581C159.377 42.4334 159.142 43.4554 158.672 44.124C158.203 44.7926 157.468 45.127 156.47 45.127C155.484 45.127 154.754 44.8011 154.28 44.1494C153.806 43.4935 153.56 42.516 153.543 41.2168V39.6489C153.543 38.2905 153.778 37.2812 154.248 36.6211C154.718 35.9609 155.454 35.6309 156.457 35.6309C157.451 35.6309 158.184 35.9504 158.653 36.5894C159.123 37.2241 159.364 38.2059 159.377 39.5347V41.0581ZM158.203 39.4521C158.203 38.4577 158.063 37.734 157.784 37.2812C157.504 36.8242 157.062 36.5957 156.457 36.5957C155.856 36.5957 155.418 36.8221 155.143 37.2749C154.868 37.7277 154.726 38.4238 154.718 39.3633V41.2422C154.718 42.2409 154.862 42.9793 155.149 43.4575C155.441 43.9315 155.882 44.1685 156.47 44.1685C157.049 44.1685 157.479 43.9442 157.758 43.4956C158.042 43.047 158.19 42.3403 158.203 41.3755V39.4521Z" fill="#565D67"/>
<path d="M173.292 41.3818V45H172.073V35.7578H175.481C176.493 35.7578 177.284 36.016 177.855 36.5322C178.431 37.0485 178.719 37.7319 178.719 38.5825C178.719 39.4797 178.437 40.1715 177.875 40.6582C177.316 41.1406 176.514 41.3818 175.469 41.3818H173.292ZM173.292 40.3853H175.481C176.133 40.3853 176.632 40.2329 176.979 39.9282C177.326 39.6193 177.5 39.175 177.5 38.5952C177.5 38.0451 177.326 37.605 176.979 37.2749C176.632 36.9448 176.156 36.7734 175.551 36.7607H173.292V40.3853ZM184.501 42.5879H180.629L179.76 45H178.503L182.032 35.7578H183.099L186.634 45H185.384L184.501 42.5879ZM180.998 41.585H184.14L182.565 37.2622L180.998 41.585ZM194.626 43.7876C194.313 44.2362 193.875 44.5726 193.312 44.7969C192.753 45.0169 192.102 45.127 191.357 45.127C190.604 45.127 189.935 44.9513 189.351 44.6001C188.767 44.2446 188.314 43.741 187.993 43.0894C187.675 42.4377 187.512 41.6823 187.504 40.8232V40.0171C187.504 38.6248 187.828 37.5457 188.475 36.7798C189.127 36.0138 190.041 35.6309 191.217 35.6309C192.182 35.6309 192.959 35.8784 193.547 36.3735C194.135 36.8644 194.495 37.5627 194.626 38.4683H193.407C193.179 37.2453 192.451 36.6338 191.224 36.6338C190.407 36.6338 189.787 36.9215 189.364 37.4971C188.945 38.0684 188.733 38.8978 188.729 39.9854V40.7407C188.729 41.7775 188.966 42.6027 189.44 43.2163C189.914 43.8257 190.555 44.1304 191.363 44.1304C191.82 44.1304 192.22 44.0796 192.563 43.978C192.906 43.8765 193.189 43.7051 193.414 43.4639V41.3882H191.274V40.3979H194.626V43.7876ZM203.773 40.6772C203.773 41.5828 203.621 42.3742 203.316 43.0513C203.011 43.7241 202.58 44.2383 202.021 44.5938C201.462 44.9492 200.811 45.127 200.066 45.127C199.338 45.127 198.693 44.9492 198.13 44.5938C197.567 44.234 197.129 43.7241 196.816 43.064C196.507 42.3996 196.348 41.6315 196.34 40.7598V40.0933C196.34 39.2046 196.494 38.4196 196.803 37.7383C197.112 37.057 197.548 36.5365 198.111 36.1768C198.678 35.8128 199.325 35.6309 200.053 35.6309C200.794 35.6309 201.445 35.8107 202.008 36.1704C202.575 36.5259 203.011 37.0443 203.316 37.7256C203.621 38.4027 203.773 39.1919 203.773 40.0933V40.6772ZM202.561 40.0806C202.561 38.9845 202.34 38.1445 201.9 37.5605C201.46 36.9723 200.845 36.6782 200.053 36.6782C199.283 36.6782 198.676 36.9723 198.231 37.5605C197.791 38.1445 197.565 38.957 197.552 39.998V40.6772C197.552 41.7394 197.774 42.5752 198.219 43.1846C198.667 43.7897 199.283 44.0923 200.066 44.0923C200.853 44.0923 201.462 43.8066 201.894 43.2354C202.326 42.6598 202.548 41.8368 202.561 40.7661V40.0806ZM207.175 35.7578L210.197 43.2988L213.218 35.7578H214.799V45H213.58V41.4009L213.694 37.5161L210.66 45H209.727L206.699 37.5352L206.82 41.4009V45H205.601V35.7578H207.175ZM216.729 44.3843C216.729 44.1812 216.788 44.0119 216.906 43.8765C217.029 43.741 217.211 43.6733 217.452 43.6733C217.693 43.6733 217.875 43.741 217.998 43.8765C218.125 44.0119 218.188 44.1812 218.188 44.3843C218.188 44.5789 218.125 44.7419 217.998 44.873C217.875 45.0042 217.693 45.0698 217.452 45.0698C217.211 45.0698 217.029 45.0042 216.906 44.873C216.788 44.7419 216.729 44.5789 216.729 44.3843ZM216.735 38.7793C216.735 38.5762 216.794 38.4069 216.913 38.2715C217.035 38.1361 217.217 38.0684 217.458 38.0684C217.7 38.0684 217.882 38.1361 218.004 38.2715C218.131 38.4069 218.195 38.5762 218.195 38.7793C218.195 38.974 218.131 39.1369 218.004 39.2681C217.882 39.3993 217.7 39.4648 217.458 39.4648C217.217 39.4648 217.035 39.3993 216.913 39.2681C216.794 39.1369 216.735 38.974 216.735 38.7793ZM225.399 38.1699C225.399 38.6312 225.277 39.0417 225.031 39.4014C224.79 39.7611 224.462 40.0425 224.047 40.2456C224.53 40.453 224.911 40.7555 225.19 41.1533C225.473 41.5511 225.615 42.0018 225.615 42.5054C225.615 43.3052 225.344 43.9421 224.803 44.416C224.265 44.89 223.556 45.127 222.676 45.127C221.788 45.127 221.075 44.89 220.537 44.416C220.004 43.9378 219.737 43.3009 219.737 42.5054C219.737 42.006 219.873 41.5553 220.144 41.1533C220.419 40.7513 220.797 40.4466 221.28 40.2393C220.869 40.0361 220.546 39.7547 220.309 39.395C220.072 39.0353 219.953 38.627 219.953 38.1699C219.953 37.3913 220.203 36.7734 220.702 36.3164C221.201 35.8594 221.86 35.6309 222.676 35.6309C223.489 35.6309 224.145 35.8594 224.644 36.3164C225.148 36.7734 225.399 37.3913 225.399 38.1699ZM224.441 42.48C224.441 41.9637 224.276 41.5426 223.946 41.2168C223.62 40.891 223.193 40.728 222.664 40.728C222.135 40.728 221.709 40.8888 221.388 41.2104C221.07 41.5321 220.912 41.9552 220.912 42.48C220.912 43.0047 221.066 43.4173 221.375 43.7178C221.688 44.0182 222.122 44.1685 222.676 44.1685C223.226 44.1685 223.658 44.0182 223.971 43.7178C224.284 43.4131 224.441 43.0005 224.441 42.48ZM222.676 36.5957C222.215 36.5957 221.84 36.7396 221.553 37.0273C221.269 37.3109 221.127 37.6981 221.127 38.189C221.127 38.6587 221.267 39.0396 221.546 39.3315C221.83 39.6193 222.207 39.7632 222.676 39.7632C223.146 39.7632 223.521 39.6193 223.8 39.3315C224.083 39.0396 224.225 38.6587 224.225 38.189C224.225 37.7192 224.079 37.3363 223.787 37.04C223.495 36.7438 223.125 36.5957 222.676 36.5957ZM230.954 45H229.773V37.1733L227.405 38.043V36.9766L230.77 35.7134H230.954V45ZM238.088 41.2612H235.917V45H234.692V35.7578H237.752C238.793 35.7578 239.593 35.9948 240.151 36.4688C240.714 36.9427 240.996 37.6325 240.996 38.5381C240.996 39.1136 240.839 39.6151 240.526 40.0425C240.217 40.4699 239.785 40.7894 239.231 41.001L241.402 44.9238V45H240.094L238.088 41.2612ZM235.917 40.2646H237.79C238.395 40.2646 238.875 40.1081 239.231 39.7949C239.591 39.4818 239.771 39.0628 239.771 38.5381C239.771 37.9668 239.599 37.5288 239.256 37.2241C238.918 36.9194 238.427 36.765 237.784 36.7607H235.917V40.2646ZM249.768 40.6772C249.768 41.5701 249.626 42.3403 249.343 42.9878C249.059 43.631 248.661 44.1346 248.149 44.4985L249.8 45.7935L248.968 46.5615L247.02 45.0127C246.715 45.0889 246.393 45.127 246.055 45.127C245.327 45.127 244.681 44.9492 244.119 44.5938C243.556 44.234 243.118 43.7241 242.805 43.064C242.496 42.3996 242.337 41.6315 242.329 40.7598V40.0933C242.329 39.2046 242.483 38.4196 242.792 37.7383C243.101 37.057 243.537 36.5365 244.1 36.1768C244.667 35.8128 245.314 35.6309 246.042 35.6309C246.787 35.6309 247.441 35.8107 248.003 36.1704C248.57 36.5301 249.006 37.0485 249.311 37.7256C249.616 38.3984 249.768 39.1855 249.768 40.0869V40.6772ZM248.549 40.0806C248.549 38.993 248.331 38.1551 247.896 37.5669C247.464 36.9744 246.846 36.6782 246.042 36.6782C245.276 36.6782 244.671 36.9723 244.227 37.5605C243.786 38.1445 243.56 38.957 243.547 39.998V40.6772C243.547 41.7352 243.767 42.5688 244.208 43.1782C244.652 43.7876 245.268 44.0923 246.055 44.0923C246.842 44.0923 247.451 43.8066 247.883 43.2354C248.314 42.6598 248.537 41.8368 248.549 40.7661V40.0806ZM252.872 44.0034H257.252V45H251.647V35.7578H252.872V44.0034ZM263.866 40.728H259.861V44.0034H264.514V45H258.642V35.7578H264.45V36.7607H259.861V39.7314H263.866V40.728Z" fill="#565D67"/>
<path d="M288.176 42.5879H284.304L283.435 45H282.178L285.707 35.7578H286.773L290.309 45H289.059L288.176 42.5879ZM284.672 41.585H287.814L286.24 37.2622L284.672 41.585ZM297.171 41.6421C297.171 42.6873 296.932 43.5295 296.454 44.1685C295.975 44.8075 295.328 45.127 294.511 45.127C293.678 45.127 293.022 44.8625 292.543 44.3335V47.6406H291.369V38.1318H292.442L292.499 38.8936C292.977 38.3011 293.642 38.0049 294.492 38.0049C295.317 38.0049 295.969 38.3159 296.447 38.938C296.93 39.5601 297.171 40.4255 297.171 41.5342V41.6421ZM295.997 41.5088C295.997 40.7344 295.832 40.1229 295.501 39.6743C295.171 39.2257 294.719 39.0015 294.143 39.0015C293.432 39.0015 292.899 39.3167 292.543 39.9473V43.229C292.895 43.8553 293.432 44.1685 294.156 44.1685C294.719 44.1685 295.165 43.9463 295.495 43.502C295.829 43.0534 295.997 42.389 295.997 41.5088ZM301.989 39.1855C301.811 39.1559 301.618 39.1411 301.411 39.1411C300.641 39.1411 300.118 39.4691 299.843 40.125V45H298.669V38.1318H299.812L299.831 38.9253C300.216 38.3117 300.762 38.0049 301.468 38.0049C301.697 38.0049 301.87 38.0345 301.989 38.0938V39.1855ZM302.636 41.5024C302.636 40.8296 302.767 40.2244 303.03 39.687C303.296 39.1496 303.665 38.7349 304.134 38.4429C304.608 38.1509 305.148 38.0049 305.753 38.0049C306.688 38.0049 307.444 38.3286 308.019 38.9761C308.599 39.6235 308.889 40.4847 308.889 41.5596V41.6421C308.889 42.3107 308.76 42.9116 308.501 43.4448C308.248 43.9738 307.882 44.3864 307.403 44.6826C306.929 44.9788 306.383 45.127 305.766 45.127C304.835 45.127 304.079 44.8032 303.5 44.1558C302.924 43.5083 302.636 42.6514 302.636 41.585V41.5024ZM303.817 41.6421C303.817 42.4038 303.993 43.0153 304.344 43.4766C304.699 43.9378 305.173 44.1685 305.766 44.1685C306.362 44.1685 306.836 43.9357 307.188 43.4702C307.539 43.0005 307.714 42.3446 307.714 41.5024C307.714 40.7492 307.535 40.1398 307.175 39.6743C306.819 39.2046 306.345 38.9697 305.753 38.9697C305.173 38.9697 304.706 39.2004 304.35 39.6616C303.995 40.1229 303.817 40.783 303.817 41.6421ZM316.176 41.6421C316.176 42.6916 315.935 43.5358 315.452 44.1748C314.97 44.8096 314.322 45.127 313.51 45.127C312.642 45.127 311.972 44.8201 311.498 44.2065L311.44 45H310.361V35.25H311.536V38.8872C312.01 38.299 312.663 38.0049 313.497 38.0049C314.331 38.0049 314.985 38.3201 315.458 38.9507C315.937 39.5812 316.176 40.4445 316.176 41.5405V41.6421ZM315.001 41.5088C315.001 40.709 314.847 40.0911 314.538 39.6553C314.229 39.2194 313.785 39.0015 313.205 39.0015C312.431 39.0015 311.874 39.3612 311.536 40.0806V43.0513C311.895 43.7707 312.456 44.1304 313.218 44.1304C313.781 44.1304 314.219 43.9124 314.532 43.4766C314.845 43.0407 315.001 42.3848 315.001 41.5088ZM321.901 45C321.834 44.8646 321.779 44.6234 321.736 44.2764C321.19 44.8434 320.539 45.127 319.781 45.127C319.104 45.127 318.548 44.9365 318.112 44.5557C317.68 44.1706 317.464 43.6839 317.464 43.0957C317.464 42.3805 317.735 41.8262 318.277 41.4326C318.823 41.0348 319.589 40.8359 320.575 40.8359H321.717V40.2964C321.717 39.8859 321.595 39.5601 321.349 39.3188C321.104 39.0734 320.742 38.9507 320.264 38.9507C319.845 38.9507 319.493 39.0565 319.21 39.2681C318.926 39.4797 318.785 39.7357 318.785 40.0361H317.604C317.604 39.6934 317.725 39.3633 317.966 39.0459C318.211 38.7243 318.541 38.4704 318.956 38.2842C319.375 38.098 319.834 38.0049 320.333 38.0049C321.125 38.0049 321.745 38.2038 322.193 38.6016C322.642 38.9951 322.875 39.5389 322.892 40.2329V43.394C322.892 44.0246 322.972 44.526 323.133 44.8984V45H321.901ZM319.953 44.105C320.321 44.105 320.67 44.0098 321 43.8193C321.33 43.6289 321.569 43.3813 321.717 43.0767V41.6675H320.797C319.358 41.6675 318.639 42.0885 318.639 42.9307C318.639 43.2988 318.761 43.5866 319.007 43.7939C319.252 44.0013 319.568 44.105 319.953 44.105ZM324.447 41.5088C324.447 40.4551 324.696 39.6087 325.196 38.9697C325.695 38.3265 326.349 38.0049 327.157 38.0049C327.961 38.0049 328.598 38.2799 329.068 38.8301V35.25H330.242V45H329.163L329.106 44.2637C328.636 44.8392 327.982 45.127 327.145 45.127C326.349 45.127 325.699 44.8011 325.196 44.1494C324.696 43.4977 324.447 42.6471 324.447 41.5977V41.5088ZM325.621 41.6421C325.621 42.4207 325.782 43.0301 326.104 43.4702C326.425 43.9103 326.869 44.1304 327.437 44.1304C328.181 44.1304 328.725 43.7961 329.068 43.1274V39.9727C328.717 39.3252 328.177 39.0015 327.449 39.0015C326.874 39.0015 326.425 39.2236 326.104 39.668C325.782 40.1123 325.621 40.7703 325.621 41.6421ZM336.311 45C336.243 44.8646 336.188 44.6234 336.146 44.2764C335.6 44.8434 334.948 45.127 334.19 45.127C333.513 45.127 332.957 44.9365 332.521 44.5557C332.089 44.1706 331.874 43.6839 331.874 43.0957C331.874 42.3805 332.144 41.8262 332.686 41.4326C333.232 41.0348 333.998 40.8359 334.984 40.8359H336.126V40.2964C336.126 39.8859 336.004 39.5601 335.758 39.3188C335.513 39.0734 335.151 38.9507 334.673 38.9507C334.254 38.9507 333.903 39.0565 333.619 39.2681C333.336 39.4797 333.194 39.7357 333.194 40.0361H332.013C332.013 39.6934 332.134 39.3633 332.375 39.0459C332.62 38.7243 332.951 38.4704 333.365 38.2842C333.784 38.098 334.243 38.0049 334.743 38.0049C335.534 38.0049 336.154 38.2038 336.603 38.6016C337.051 38.9951 337.284 39.5389 337.301 40.2329V43.394C337.301 44.0246 337.381 44.526 337.542 44.8984V45H336.311ZM334.362 44.105C334.73 44.105 335.079 44.0098 335.409 43.8193C335.739 43.6289 335.978 43.3813 336.126 43.0767V41.6675H335.206C333.767 41.6675 333.048 42.0885 333.048 42.9307C333.048 43.2988 333.171 43.5866 333.416 43.7939C333.661 44.0013 333.977 44.105 334.362 44.105Z" fill="#565D67"/>
<rect x="88.7534" y="8" width="79.8781" height="21" rx="3" fill="#565D67"/>
<path d="M116.17 18.9185H112.292V23H111.073V13.7578H116.798V14.7607H112.292V17.9219H116.17V18.9185ZM120.785 23.127C119.854 23.127 119.096 22.8223 118.512 22.2129C117.928 21.5993 117.636 20.7804 117.636 19.7563V19.5405C117.636 18.8592 117.765 18.252 118.023 17.7188C118.286 17.1813 118.65 16.7624 119.115 16.4619C119.585 16.1572 120.093 16.0049 120.639 16.0049C121.532 16.0049 122.226 16.299 122.721 16.8872C123.216 17.4754 123.463 18.3175 123.463 19.4136V19.9023H118.811C118.827 20.5794 119.024 21.1274 119.401 21.5464C119.782 21.9611 120.264 22.1685 120.848 22.1685C121.263 22.1685 121.614 22.0838 121.902 21.9146C122.19 21.7453 122.441 21.521 122.657 21.2417L123.375 21.8003C122.799 22.6847 121.936 23.127 120.785 23.127ZM120.639 16.9697C120.165 16.9697 119.767 17.1432 119.445 17.4902C119.124 17.833 118.925 18.3154 118.849 18.9375H122.289V18.8486C122.255 18.252 122.094 17.7907 121.807 17.4648C121.519 17.1348 121.13 16.9697 120.639 16.9697ZM127.583 22.1685C128.002 22.1685 128.368 22.0415 128.681 21.7876C128.994 21.5337 129.168 21.2163 129.202 20.8354H130.312C130.291 21.229 130.156 21.6035 129.906 21.959C129.657 22.3145 129.322 22.598 128.903 22.8096C128.489 23.0212 128.049 23.127 127.583 23.127C126.648 23.127 125.903 22.8159 125.349 22.1938C124.799 21.5675 124.523 20.7127 124.523 19.6294V19.4326C124.523 18.764 124.646 18.1694 124.892 17.6489C125.137 17.1284 125.488 16.7243 125.945 16.4365C126.407 16.1488 126.95 16.0049 127.577 16.0049C128.347 16.0049 128.986 16.2355 129.494 16.6968C130.006 17.158 130.279 17.7568 130.312 18.4932H129.202C129.168 18.0488 128.999 17.6849 128.694 17.4014C128.393 17.1136 128.021 16.9697 127.577 16.9697C126.98 16.9697 126.517 17.1855 126.187 17.6172C125.861 18.0446 125.698 18.6646 125.698 19.4771V19.6992C125.698 20.4906 125.861 21.0999 126.187 21.5273C126.512 21.9548 126.978 22.1685 127.583 22.1685ZM132.807 16.9634C133.328 16.3244 134.005 16.0049 134.838 16.0049C136.29 16.0049 137.022 16.8237 137.035 18.4614V23H135.86V18.4551C135.856 17.96 135.742 17.5939 135.518 17.3569C135.298 17.12 134.953 17.0015 134.483 17.0015C134.102 17.0015 133.768 17.103 133.48 17.3062C133.192 17.5093 132.968 17.7759 132.807 18.106V23H131.633V13.25H132.807V16.9634ZM143.033 23C142.965 22.8646 142.91 22.6234 142.868 22.2764C142.322 22.8434 141.671 23.127 140.913 23.127C140.236 23.127 139.68 22.9365 139.244 22.5557C138.812 22.1706 138.596 21.6839 138.596 21.0957C138.596 20.3805 138.867 19.8262 139.409 19.4326C139.955 19.0348 140.721 18.8359 141.707 18.8359H142.849V18.2964C142.849 17.8859 142.726 17.5601 142.481 17.3188C142.236 17.0734 141.874 16.9507 141.396 16.9507C140.977 16.9507 140.625 17.0565 140.342 17.2681C140.058 17.4797 139.917 17.7357 139.917 18.0361H138.736C138.736 17.6934 138.856 17.3633 139.098 17.0459C139.343 16.7243 139.673 16.4704 140.088 16.2842C140.507 16.098 140.966 16.0049 141.465 16.0049C142.257 16.0049 142.877 16.2038 143.325 16.6016C143.774 16.9951 144.007 17.5389 144.023 18.2329V21.394C144.023 22.0246 144.104 22.526 144.265 22.8984V23H143.033ZM141.084 22.105C141.453 22.105 141.802 22.0098 142.132 21.8193C142.462 21.6289 142.701 21.3813 142.849 21.0767V19.6675H141.929C140.49 19.6675 139.771 20.0885 139.771 20.9307C139.771 21.2988 139.893 21.5866 140.139 21.7939C140.384 22.0013 140.699 22.105 141.084 22.105Z" fill="white" fill-opacity="0.9"/>
<rect x="172.576" y="8" width="92.6981" height="21" rx="3" fill="#565D67"/>
<path d="M200.146 20.0674C200.032 21.0449 199.67 21.8003 199.061 22.3335C198.456 22.8625 197.65 23.127 196.643 23.127C195.551 23.127 194.675 22.7355 194.015 21.9526C193.359 21.1698 193.031 20.1224 193.031 18.8105V17.9219C193.031 17.0628 193.183 16.3075 193.488 15.6558C193.797 15.0041 194.233 14.5047 194.795 14.1577C195.358 13.8065 196.01 13.6309 196.75 13.6309C197.732 13.6309 198.519 13.9059 199.112 14.4561C199.704 15.002 200.049 15.7594 200.146 16.7285H198.921C198.816 15.9922 198.585 15.459 198.229 15.1289C197.878 14.7988 197.385 14.6338 196.75 14.6338C195.972 14.6338 195.36 14.9215 194.916 15.4971C194.476 16.0726 194.256 16.8914 194.256 17.9536V18.8486C194.256 19.8516 194.465 20.6493 194.884 21.2417C195.303 21.8341 195.889 22.1304 196.643 22.1304C197.32 22.1304 197.838 21.978 198.198 21.6733C198.562 21.3644 198.803 20.8291 198.921 20.0674H200.146ZM201.321 19.5024C201.321 18.8296 201.452 18.2244 201.714 17.687C201.981 17.1496 202.349 16.7349 202.819 16.4429C203.293 16.1509 203.832 16.0049 204.438 16.0049C205.373 16.0049 206.128 16.3286 206.704 16.9761C207.283 17.6235 207.573 18.4847 207.573 19.5596V19.6421C207.573 20.3107 207.444 20.9116 207.186 21.4448C206.932 21.9738 206.566 22.3864 206.088 22.6826C205.614 22.9788 205.068 23.127 204.45 23.127C203.519 23.127 202.764 22.8032 202.184 22.1558C201.609 21.5083 201.321 20.6514 201.321 19.585V19.5024ZM202.501 19.6421C202.501 20.4038 202.677 21.0153 203.028 21.4766C203.384 21.9378 203.858 22.1685 204.45 22.1685C205.047 22.1685 205.521 21.9357 205.872 21.4702C206.223 21.0005 206.399 20.3446 206.399 19.5024C206.399 18.7492 206.219 18.1398 205.859 17.6743C205.504 17.2046 205.03 16.9697 204.438 16.9697C203.858 16.9697 203.39 17.2004 203.035 17.6616C202.679 18.1229 202.501 18.783 202.501 19.6421ZM210.15 16.1318L210.182 16.8936C210.686 16.3011 211.365 16.0049 212.22 16.0049C213.18 16.0049 213.834 16.373 214.181 17.1094C214.41 16.7793 214.706 16.5127 215.07 16.3096C215.438 16.1064 215.872 16.0049 216.371 16.0049C217.878 16.0049 218.644 16.8026 218.669 18.3979V23H217.495V18.4678C217.495 17.9769 217.382 17.6108 217.158 17.3696C216.934 17.1242 216.557 17.0015 216.028 17.0015C215.592 17.0015 215.231 17.1326 214.943 17.395C214.655 17.6532 214.488 18.0023 214.441 18.4424V23H213.261V18.4995C213.261 17.5008 212.772 17.0015 211.794 17.0015C211.024 17.0015 210.497 17.3294 210.214 17.9854V23H209.04V16.1318H210.15ZM223.296 23.127C222.365 23.127 221.608 22.8223 221.024 22.2129C220.44 21.5993 220.148 20.7804 220.148 19.7563V19.5405C220.148 18.8592 220.277 18.252 220.535 17.7188C220.798 17.1813 221.161 16.7624 221.627 16.4619C222.097 16.1572 222.604 16.0049 223.15 16.0049C224.043 16.0049 224.737 16.299 225.232 16.8872C225.728 17.4754 225.975 18.3175 225.975 19.4136V19.9023H221.322C221.339 20.5794 221.536 21.1274 221.913 21.5464C222.293 21.9611 222.776 22.1685 223.36 22.1685C223.775 22.1685 224.126 22.0838 224.414 21.9146C224.701 21.7453 224.953 21.521 225.169 21.2417L225.886 21.8003C225.311 22.6847 224.447 23.127 223.296 23.127ZM223.15 16.9697C222.676 16.9697 222.279 17.1432 221.957 17.4902C221.635 17.833 221.437 18.3154 221.36 18.9375H224.801V18.8486C224.767 18.252 224.606 17.7907 224.318 17.4648C224.031 17.1348 223.641 16.9697 223.15 16.9697ZM230.66 17.1855C230.482 17.1559 230.289 17.1411 230.082 17.1411C229.312 17.1411 228.789 17.4691 228.514 18.125V23H227.34V16.1318H228.482L228.501 16.9253C228.887 16.3117 229.432 16.0049 230.139 16.0049C230.368 16.0049 230.541 16.0345 230.66 16.0938V17.1855ZM234.373 22.1685C234.792 22.1685 235.158 22.0415 235.471 21.7876C235.784 21.5337 235.958 21.2163 235.992 20.8354H237.103C237.081 21.229 236.946 21.6035 236.696 21.959C236.447 22.3145 236.112 22.598 235.693 22.8096C235.279 23.0212 234.839 23.127 234.373 23.127C233.438 23.127 232.693 22.8159 232.139 22.1938C231.589 21.5675 231.313 20.7127 231.313 19.6294V19.4326C231.313 18.764 231.436 18.1694 231.682 17.6489C231.927 17.1284 232.278 16.7243 232.735 16.4365C233.197 16.1488 233.74 16.0049 234.367 16.0049C235.137 16.0049 235.776 16.2355 236.284 16.6968C236.796 17.158 237.069 17.7568 237.103 18.4932H235.992C235.958 18.0488 235.789 17.6849 235.484 17.4014C235.183 17.1136 234.811 16.9697 234.367 16.9697C233.77 16.9697 233.307 17.1855 232.977 17.6172C232.651 18.0446 232.488 18.6646 232.488 19.4771V19.6992C232.488 20.4906 232.651 21.0999 232.977 21.5273C233.302 21.9548 233.768 22.1685 234.373 22.1685ZM239.699 23H238.524V16.1318H239.699V23ZM238.429 14.3101C238.429 14.1196 238.486 13.9588 238.601 13.8276C238.719 13.6965 238.893 13.6309 239.121 13.6309C239.35 13.6309 239.523 13.6965 239.642 13.8276C239.76 13.9588 239.819 14.1196 239.819 14.3101C239.819 14.5005 239.76 14.6592 239.642 14.7861C239.523 14.9131 239.35 14.9766 239.121 14.9766C238.893 14.9766 238.719 14.9131 238.601 14.7861C238.486 14.6592 238.429 14.5005 238.429 14.3101ZM241.273 19.5024C241.273 18.8296 241.404 18.2244 241.667 17.687C241.933 17.1496 242.301 16.7349 242.771 16.4429C243.245 16.1509 243.785 16.0049 244.39 16.0049C245.325 16.0049 246.08 16.3286 246.656 16.9761C247.236 17.6235 247.525 18.4847 247.525 19.5596V19.6421C247.525 20.3107 247.396 20.9116 247.138 21.4448C246.884 21.9738 246.518 22.3864 246.04 22.6826C245.566 22.9788 245.02 23.127 244.402 23.127C243.471 23.127 242.716 22.8032 242.136 22.1558C241.561 21.5083 241.273 20.6514 241.273 19.585V19.5024ZM242.454 19.6421C242.454 20.4038 242.629 21.0153 242.98 21.4766C243.336 21.9378 243.81 22.1685 244.402 22.1685C244.999 22.1685 245.473 21.9357 245.824 21.4702C246.175 21.0005 246.351 20.3446 246.351 19.5024C246.351 18.7492 246.171 18.1398 245.812 17.6743C245.456 17.2046 244.982 16.9697 244.39 16.9697C243.81 16.9697 243.342 17.2004 242.987 17.6616C242.631 18.1229 242.454 18.783 242.454 19.6421Z" fill="white"/>
<rect x="268.233" y="8" width="82.8366" height="21" rx="3" fill="#565D67"/>
<path d="M293.739 18.728H289.733V22.0034H294.386V23H288.515V13.7578H294.323V14.7607H289.733V17.7314H293.739V18.728ZM299.718 21.1782C299.718 20.8608 299.598 20.6154 299.356 20.4419C299.119 20.2642 298.703 20.1118 298.106 19.9849C297.514 19.8579 297.042 19.7056 296.69 19.5278C296.343 19.3501 296.085 19.1385 295.916 18.8931C295.751 18.6476 295.668 18.3556 295.668 18.0171C295.668 17.4543 295.905 16.9782 296.379 16.5889C296.858 16.1995 297.467 16.0049 298.208 16.0049C298.986 16.0049 299.617 16.2059 300.099 16.6079C300.586 17.0099 300.829 17.5241 300.829 18.1504H299.648C299.648 17.8288 299.511 17.5516 299.236 17.3188C298.965 17.0861 298.622 16.9697 298.208 16.9697C297.78 16.9697 297.446 17.0628 297.205 17.249C296.963 17.4352 296.843 17.6785 296.843 17.979C296.843 18.2625 296.955 18.4762 297.179 18.6201C297.403 18.764 297.808 18.9015 298.392 19.0327C298.98 19.1639 299.456 19.3205 299.82 19.5024C300.184 19.6844 300.452 19.9045 300.626 20.1626C300.804 20.4165 300.893 20.7275 300.893 21.0957C300.893 21.7093 300.647 22.2023 300.156 22.5747C299.665 22.9429 299.028 23.127 298.246 23.127C297.695 23.127 297.209 23.0296 296.786 22.835C296.362 22.6403 296.03 22.3695 295.789 22.0225C295.552 21.6712 295.434 21.2925 295.434 20.8862H296.608C296.629 21.2798 296.786 21.5929 297.078 21.8257C297.374 22.0542 297.763 22.1685 298.246 22.1685C298.69 22.1685 299.045 22.0796 299.312 21.9019C299.583 21.7199 299.718 21.4787 299.718 21.1782ZM304.016 14.4688V16.1318H305.298V17.0396H304.016V21.2988C304.016 21.5739 304.073 21.7812 304.187 21.9209C304.301 22.0563 304.496 22.124 304.771 22.124C304.906 22.124 305.093 22.0986 305.33 22.0479V23C305.021 23.0846 304.72 23.127 304.428 23.127C303.903 23.127 303.508 22.9683 303.241 22.6509C302.975 22.3335 302.841 21.8828 302.841 21.2988V17.0396H301.591V16.1318H302.841V14.4688H304.016ZM310.916 23C310.848 22.8646 310.793 22.6234 310.75 22.2764C310.205 22.8434 309.553 23.127 308.795 23.127C308.118 23.127 307.562 22.9365 307.126 22.5557C306.694 22.1706 306.479 21.6839 306.479 21.0957C306.479 20.3805 306.749 19.8262 307.291 19.4326C307.837 19.0348 308.603 18.8359 309.589 18.8359H310.731V18.2964C310.731 17.8859 310.609 17.5601 310.363 17.3188C310.118 17.0734 309.756 16.9507 309.278 16.9507C308.859 16.9507 308.508 17.0565 308.224 17.2681C307.941 17.4797 307.799 17.7357 307.799 18.0361H306.618C306.618 17.6934 306.739 17.3633 306.98 17.0459C307.225 16.7243 307.556 16.4704 307.97 16.2842C308.389 16.098 308.848 16.0049 309.348 16.0049C310.139 16.0049 310.759 16.2038 311.208 16.6016C311.656 16.9951 311.889 17.5389 311.906 18.2329V21.394C311.906 22.0246 311.986 22.526 312.147 22.8984V23H310.916ZM308.967 22.105C309.335 22.105 309.684 22.0098 310.014 21.8193C310.344 21.6289 310.583 21.3813 310.731 21.0767V19.6675H309.811C308.372 19.6675 307.653 20.0885 307.653 20.9307C307.653 21.2988 307.776 21.5866 308.021 21.7939C308.266 22.0013 308.582 22.105 308.967 22.105ZM315.34 14.4688V16.1318H316.622V17.0396H315.34V21.2988C315.34 21.5739 315.397 21.7812 315.511 21.9209C315.625 22.0563 315.82 22.124 316.095 22.124C316.231 22.124 316.417 22.0986 316.654 22.0479V23C316.345 23.0846 316.044 23.127 315.752 23.127C315.228 23.127 314.832 22.9683 314.565 22.6509C314.299 22.3335 314.166 21.8828 314.166 21.2988V17.0396H312.915V16.1318H314.166V14.4688H315.34ZM322.24 22.3208C321.783 22.8582 321.112 23.127 320.228 23.127C319.495 23.127 318.937 22.9154 318.552 22.4922C318.171 22.0648 317.978 21.4342 317.974 20.6006V16.1318H319.148V20.5688C319.148 21.6099 319.572 22.1304 320.418 22.1304C321.315 22.1304 321.912 21.7961 322.208 21.1274V16.1318H323.382V23H322.265L322.24 22.3208ZM329.171 21.1782C329.171 20.8608 329.051 20.6154 328.81 20.4419C328.573 20.2642 328.156 20.1118 327.559 19.9849C326.967 19.8579 326.495 19.7056 326.144 19.5278C325.797 19.3501 325.538 19.1385 325.369 18.8931C325.204 18.6476 325.122 18.3556 325.122 18.0171C325.122 17.4543 325.359 16.9782 325.833 16.5889C326.311 16.1995 326.92 16.0049 327.661 16.0049C328.439 16.0049 329.07 16.2059 329.552 16.6079C330.039 17.0099 330.282 17.5241 330.282 18.1504H329.102C329.102 17.8288 328.964 17.5516 328.689 17.3188C328.418 17.0861 328.075 16.9697 327.661 16.9697C327.233 16.9697 326.899 17.0628 326.658 17.249C326.417 17.4352 326.296 17.6785 326.296 17.979C326.296 18.2625 326.408 18.4762 326.632 18.6201C326.857 18.764 327.261 18.9015 327.845 19.0327C328.433 19.1639 328.909 19.3205 329.273 19.5024C329.637 19.6844 329.906 19.9045 330.079 20.1626C330.257 20.4165 330.346 20.7275 330.346 21.0957C330.346 21.7093 330.1 22.2023 329.609 22.5747C329.118 22.9429 328.482 23.127 327.699 23.127C327.149 23.127 326.662 23.0296 326.239 22.835C325.816 22.6403 325.483 22.3695 325.242 22.0225C325.005 21.6712 324.887 21.2925 324.887 20.8862H326.061C326.082 21.2798 326.239 21.5929 326.531 21.8257C326.827 22.0542 327.216 22.1685 327.699 22.1685C328.143 22.1685 328.499 22.0796 328.765 21.9019C329.036 21.7199 329.171 21.4787 329.171 21.1782Z" fill="white"/>
<rect x="0.5" y="0.5" width="355" height="51" rx="9.5" stroke="#565D67"/>
<rect x="217.6" y="31.6" width="49.8" height="17.8" rx="5.4" stroke="#FF595A" stroke-width="1.2"/>
</svg>
