<svg width="346" height="81" viewBox="0 0 346 81" fill="none" xmlns="http://www.w3.org/2000/svg">
<g clip-path="url(#clip0)">
<path d="M55.1148 41.5H37.1965C37.1418 43.0477 36.1094 44 34.777 44H30.2837C28.9025 44 27.8435 42.6352 27.862 41.5H10.1824C9.53209 41.5 9 42.0625 9 42.75V44C9 46.75 11.1284 49 13.7297 49H51.5675C54.1688 49 56.2972 46.75 56.2972 44V42.75C56.2972 42.0625 55.7651 41.5 55.1148 41.5ZM51.5675 12.75C51.5675 10.6875 49.9712 9 48.0202 9H17.277C15.326 9 13.7297 10.6875 13.7297 12.75V39H51.5675V12.75ZM46.8378 34H18.4594V14H46.8378V34Z" fill="#565D67"/>
</g>
<path d="M2.93555 77H1.85449V64.2031H2.93555V77ZM6.41602 77V64.2031H10.1953C11.5664 64.2031 12.6064 64.4873 13.3154 65.0557C14.0244 65.6182 14.3789 66.4502 14.3789 67.5518C14.3789 68.2139 14.1973 68.791 13.834 69.2832C13.4766 69.7695 12.9844 70.1182 12.3574 70.3291C13.1016 70.4932 13.6992 70.8594 14.1504 71.4277C14.6074 71.9961 14.8359 72.6523 14.8359 73.3965C14.8359 74.5273 14.4697 75.4121 13.7373 76.0508C13.0107 76.6836 11.9971 77 10.6963 77H6.41602ZM7.49707 70.8477V76.0859H10.7402C11.666 76.0859 12.3984 75.8516 12.9375 75.3828C13.4824 74.9082 13.7549 74.252 13.7549 73.4141C13.7549 72.623 13.4941 71.999 12.9727 71.542C12.457 71.0791 11.7422 70.8477 10.8281 70.8477H7.49707ZM7.49707 69.9424H10.4502C11.3525 69.9248 12.0498 69.7139 12.542 69.3096C13.04 68.8994 13.2891 68.3047 13.2891 67.5254C13.2891 66.7051 13.0312 66.1016 12.5156 65.7148C12.0059 65.3223 11.2324 65.126 10.1953 65.126H7.49707V69.9424ZM23.2119 77C23.1064 76.7012 23.0391 76.2588 23.0098 75.6729C22.6406 76.1533 22.1689 76.5254 21.5947 76.7891C21.0264 77.0469 20.4229 77.1758 19.7842 77.1758C18.8701 77.1758 18.1289 76.9209 17.5605 76.4111C16.998 75.9014 16.7168 75.2568 16.7168 74.4775C16.7168 73.5518 17.1006 72.8193 17.8682 72.2803C18.6416 71.7412 19.7168 71.4717 21.0938 71.4717H23.001V70.3906C23.001 69.7109 22.79 69.1777 22.3682 68.791C21.9521 68.3984 21.3428 68.2021 20.54 68.2021C19.8076 68.2021 19.2012 68.3896 18.7207 68.7646C18.2402 69.1396 18 69.5908 18 70.1182L16.9453 70.1094C16.9453 69.3535 17.2969 68.7002 18 68.1494C18.7031 67.5928 19.5674 67.3145 20.5928 67.3145C21.6533 67.3145 22.4883 67.5811 23.0977 68.1143C23.7129 68.6416 24.0293 69.3799 24.0469 70.3291V74.8291C24.0469 75.749 24.1436 76.4375 24.3369 76.8945V77H23.2119ZM19.9072 76.2441C20.6104 76.2441 21.2373 76.0742 21.7881 75.7344C22.3447 75.3945 22.749 74.9404 23.001 74.3721V72.2803H21.1201C20.0713 72.292 19.251 72.4854 18.6592 72.8604C18.0674 73.2295 17.7715 73.7393 17.7715 74.3896C17.7715 74.9229 17.9678 75.3652 18.3604 75.7168C18.7588 76.0684 19.2744 76.2441 19.9072 76.2441ZM27.8613 67.4902L27.8965 69.1162C28.2539 68.5303 28.6992 68.085 29.2324 67.7803C29.7656 67.4697 30.3545 67.3145 30.999 67.3145C32.0186 67.3145 32.7773 67.6016 33.2754 68.1758C33.7734 68.75 34.0254 69.6113 34.0312 70.7598V77H32.9854V70.751C32.9795 69.9014 32.7979 69.2686 32.4404 68.8525C32.0889 68.4365 31.5234 68.2285 30.7441 68.2285C30.0938 68.2285 29.5166 68.4336 29.0127 68.8438C28.5146 69.248 28.1455 69.7959 27.9053 70.4873V77H26.8594V67.4902H27.8613ZM39.0146 72.21L37.8105 73.3701V77H36.7559V63.5H37.8105V72.1396L38.8037 71.0674L42.4424 67.4902H43.7695L39.7354 71.498L44.1211 77H42.8643L39.0146 72.21ZM46.7578 77H45.7031V67.4902H46.7578V77ZM45.5186 64.7393C45.5186 64.54 45.583 64.373 45.7119 64.2383C45.8408 64.0977 46.0166 64.0273 46.2393 64.0273C46.4619 64.0273 46.6377 64.0977 46.7666 64.2383C46.9014 64.373 46.9688 64.54 46.9688 64.7393C46.9688 64.9385 46.9014 65.1055 46.7666 65.2402C46.6377 65.375 46.4619 65.4424 46.2393 65.4424C46.0166 65.4424 45.8408 65.375 45.7119 65.2402C45.583 65.1055 45.5186 64.9385 45.5186 64.7393ZM50.625 67.4902L50.6602 69.1162C51.0176 68.5303 51.4629 68.085 51.9961 67.7803C52.5293 67.4697 53.1182 67.3145 53.7627 67.3145C54.7822 67.3145 55.541 67.6016 56.0391 68.1758C56.5371 68.75 56.7891 69.6113 56.7949 70.7598V77H55.749V70.751C55.7432 69.9014 55.5615 69.2686 55.2041 68.8525C54.8525 68.4365 54.2871 68.2285 53.5078 68.2285C52.8574 68.2285 52.2803 68.4336 51.7764 68.8438C51.2783 69.248 50.9092 69.7959 50.6689 70.4873V77H49.623V67.4902H50.625ZM59.0977 72.1572C59.0977 70.6689 59.4258 69.4912 60.082 68.624C60.7441 67.751 61.6406 67.3145 62.7715 67.3145C64.0664 67.3145 65.0508 67.8301 65.7246 68.8613L65.7773 67.4902H66.7617V76.8066C66.7617 78.0312 66.4189 79.001 65.7334 79.7158C65.0479 80.4307 64.1191 80.7881 62.9473 80.7881C62.2852 80.7881 61.6523 80.6387 61.0488 80.3398C60.4512 80.0469 59.9795 79.6543 59.6338 79.1621L60.2227 78.5293C60.9668 79.4434 61.8516 79.9004 62.877 79.9004C63.7559 79.9004 64.4414 79.6396 64.9336 79.1182C65.4258 78.6025 65.6807 77.8848 65.6982 76.9648V75.7695C65.0244 76.707 64.043 77.1758 62.7539 77.1758C61.6523 77.1758 60.7676 76.7363 60.0996 75.8574C59.4316 74.9785 59.0977 73.792 59.0977 72.2979V72.1572ZM60.1611 72.3418C60.1611 73.5547 60.4043 74.5127 60.8906 75.2158C61.377 75.9131 62.0625 76.2617 62.9473 76.2617C64.2422 76.2617 65.1592 75.6816 65.6982 74.5215V70.1006C65.4521 69.4912 65.0977 69.0283 64.6348 68.7119C64.1719 68.3896 63.6152 68.2285 62.9648 68.2285C62.0801 68.2285 61.3916 68.5771 60.8994 69.2744C60.4072 69.9658 60.1611 70.9883 60.1611 72.3418Z" fill="#565D67"/>
<path d="M115.684 71.8652H109.698V77.0859H116.58V78H108.617V65.2031H116.536V66.126H109.698V70.9512H115.684V71.8652ZM121.889 72.7969H117.679V71.9092H121.889V72.7969ZM124.728 68.4902L124.763 70.0371C125.114 69.4629 125.554 69.0322 126.081 68.7451C126.608 68.458 127.194 68.3145 127.839 68.3145C129.339 68.3145 130.291 68.9297 130.695 70.1602C131.035 69.5684 131.489 69.1143 132.058 68.7979C132.626 68.4756 133.253 68.3145 133.938 68.3145C135.978 68.3145 137.018 69.4277 137.059 71.6543V78H136.004V71.7334C135.998 70.8838 135.813 70.2539 135.45 69.8438C135.093 69.4336 134.507 69.2285 133.692 69.2285C132.937 69.2402 132.298 69.4863 131.776 69.9668C131.255 70.4414 130.965 71.0215 130.906 71.707V78H129.852V71.6543C129.846 70.8398 129.652 70.2334 129.271 69.835C128.896 69.4307 128.316 69.2285 127.531 69.2285C126.869 69.2285 126.301 69.4189 125.826 69.7998C125.352 70.1748 125 70.7344 124.771 71.4785V78H123.717V68.4902H124.728ZM145.733 78C145.628 77.7012 145.561 77.2588 145.531 76.6729C145.162 77.1533 144.69 77.5254 144.116 77.7891C143.548 78.0469 142.944 78.1758 142.306 78.1758C141.392 78.1758 140.65 77.9209 140.082 77.4111C139.52 76.9014 139.238 76.2568 139.238 75.4775C139.238 74.5518 139.622 73.8193 140.39 73.2803C141.163 72.7412 142.238 72.4717 143.615 72.4717H145.522V71.3906C145.522 70.7109 145.312 70.1777 144.89 69.791C144.474 69.3984 143.864 69.2021 143.062 69.2021C142.329 69.2021 141.723 69.3896 141.242 69.7646C140.762 70.1396 140.521 70.5908 140.521 71.1182L139.467 71.1094C139.467 70.3535 139.818 69.7002 140.521 69.1494C141.225 68.5928 142.089 68.3145 143.114 68.3145C144.175 68.3145 145.01 68.5811 145.619 69.1143C146.234 69.6416 146.551 70.3799 146.568 71.3291V75.8291C146.568 76.749 146.665 77.4375 146.858 77.8945V78H145.733ZM142.429 77.2441C143.132 77.2441 143.759 77.0742 144.31 76.7344C144.866 76.3945 145.271 75.9404 145.522 75.3721V73.2803H143.642C142.593 73.292 141.772 73.4854 141.181 73.8604C140.589 74.2295 140.293 74.7393 140.293 75.3896C140.293 75.9229 140.489 76.3652 140.882 76.7168C141.28 77.0684 141.796 77.2441 142.429 77.2441ZM150.559 78H149.504V68.4902H150.559V78ZM149.319 65.7393C149.319 65.54 149.384 65.373 149.513 65.2383C149.642 65.0977 149.817 65.0273 150.04 65.0273C150.263 65.0273 150.438 65.0977 150.567 65.2383C150.702 65.373 150.77 65.54 150.77 65.7393C150.77 65.9385 150.702 66.1055 150.567 66.2402C150.438 66.375 150.263 66.4424 150.04 66.4424C149.817 66.4424 149.642 66.375 149.513 66.2402C149.384 66.1055 149.319 65.9385 149.319 65.7393ZM154.602 78H153.547V64.5H154.602V78Z" fill="#565D67"/>
<path d="M211.859 74.8535C211.859 74.1445 211.61 73.585 211.112 73.1748C210.614 72.7588 209.703 72.3662 208.379 71.9971C207.055 71.6221 206.088 71.2148 205.479 70.7754C204.611 70.1543 204.178 69.3398 204.178 68.332C204.178 67.3535 204.579 66.5596 205.382 65.9502C206.19 65.335 207.222 65.0273 208.476 65.0273C209.325 65.0273 210.084 65.1914 210.752 65.5195C211.426 65.8477 211.947 66.3047 212.316 66.8906C212.686 67.4766 212.87 68.1299 212.87 68.8506H211.78C211.78 67.9775 211.481 67.2773 210.884 66.75C210.286 66.2168 209.483 65.9502 208.476 65.9502C207.497 65.9502 206.718 66.1699 206.138 66.6094C205.558 67.043 205.268 67.6113 205.268 68.3145C205.268 68.9648 205.528 69.4951 206.05 69.9053C206.571 70.3154 207.406 70.6787 208.555 70.9951C209.703 71.3057 210.573 71.6309 211.165 71.9707C211.757 72.3047 212.202 72.7061 212.501 73.1748C212.8 73.6436 212.949 74.1973 212.949 74.8359C212.949 75.8438 212.545 76.6523 211.736 77.2617C210.934 77.8711 209.873 78.1758 208.555 78.1758C207.652 78.1758 206.823 78.0146 206.067 77.6924C205.317 77.3701 204.746 76.9189 204.354 76.3389C203.967 75.7588 203.773 75.0938 203.773 74.3438H204.854C204.854 75.2461 205.191 75.958 205.865 76.4795C206.539 77.001 207.436 77.2617 208.555 77.2617C209.551 77.2617 210.351 77.042 210.954 76.6025C211.558 76.1631 211.859 75.5801 211.859 74.8535ZM216.72 65.2031L221.439 76.4971L226.177 65.2031H227.618V78H226.537V72.4277L226.625 66.7148L221.861 78H221.026L216.28 66.7588L216.368 72.3926V78H215.287V65.2031H216.72ZM238.104 74.8535C238.104 74.1445 237.854 73.585 237.356 73.1748C236.858 72.7588 235.947 72.3662 234.623 71.9971C233.299 71.6221 232.332 71.2148 231.723 70.7754C230.855 70.1543 230.422 69.3398 230.422 68.332C230.422 67.3535 230.823 66.5596 231.626 65.9502C232.435 65.335 233.466 65.0273 234.72 65.0273C235.569 65.0273 236.328 65.1914 236.996 65.5195C237.67 65.8477 238.191 66.3047 238.561 66.8906C238.93 67.4766 239.114 68.1299 239.114 68.8506H238.024C238.024 67.9775 237.726 67.2773 237.128 66.75C236.53 66.2168 235.728 65.9502 234.72 65.9502C233.741 65.9502 232.962 66.1699 232.382 66.6094C231.802 67.043 231.512 67.6113 231.512 68.3145C231.512 68.9648 231.772 69.4951 232.294 69.9053C232.815 70.3154 233.65 70.6787 234.799 70.9951C235.947 71.3057 236.817 71.6309 237.409 71.9707C238.001 72.3047 238.446 72.7061 238.745 73.1748C239.044 73.6436 239.193 74.1973 239.193 74.8359C239.193 75.8438 238.789 76.6523 237.98 77.2617C237.178 77.8711 236.117 78.1758 234.799 78.1758C233.896 78.1758 233.067 78.0146 232.312 77.6924C231.562 77.3701 230.99 76.9189 230.598 76.3389C230.211 75.7588 230.018 75.0938 230.018 74.3438H231.099C231.099 75.2461 231.436 75.958 232.109 76.4795C232.783 77.001 233.68 77.2617 234.799 77.2617C235.795 77.2617 236.595 77.042 237.198 76.6025C237.802 76.1631 238.104 75.5801 238.104 74.8535Z" fill="#565D67"/>
<path d="M284.105 63.2891H289.021V64H283.258V54.0469H284.105V63.2891ZM291.365 64H290.545V53.5H291.365V64ZM298.263 64C298.181 63.7676 298.128 63.4235 298.105 62.9678C297.818 63.3415 297.451 63.6309 297.005 63.8359C296.563 64.0365 296.093 64.1367 295.597 64.1367C294.886 64.1367 294.309 63.9385 293.867 63.542C293.43 63.1455 293.211 62.6442 293.211 62.0381C293.211 61.318 293.509 60.7484 294.106 60.3291C294.708 59.9098 295.544 59.7002 296.615 59.7002H298.099V58.8594C298.099 58.3307 297.935 57.916 297.606 57.6152C297.283 57.3099 296.809 57.1572 296.185 57.1572C295.615 57.1572 295.143 57.3031 294.77 57.5947C294.396 57.8864 294.209 58.2373 294.209 58.6475L293.389 58.6406C293.389 58.0527 293.662 57.5446 294.209 57.1162C294.756 56.6833 295.428 56.4668 296.226 56.4668C297.05 56.4668 297.7 56.6742 298.174 57.0889C298.652 57.499 298.898 58.0732 298.912 58.8115V62.3115C298.912 63.027 298.987 63.5625 299.138 63.918V64H298.263ZM295.692 63.4121C296.239 63.4121 296.727 63.2799 297.155 63.0156C297.588 62.7513 297.903 62.3981 298.099 61.9561V60.3291H296.636C295.82 60.3382 295.182 60.4886 294.722 60.7803C294.261 61.0674 294.031 61.4639 294.031 61.9697C294.031 62.3844 294.184 62.7285 294.489 63.002C294.799 63.2754 295.2 63.4121 295.692 63.4121ZM301.845 56.6035L301.872 57.8066C302.146 57.36 302.487 57.0251 302.897 56.8018C303.308 56.5785 303.763 56.4668 304.265 56.4668C305.431 56.4668 306.172 56.9453 306.486 57.9023C306.751 57.4421 307.104 57.0889 307.546 56.8428C307.988 56.5921 308.476 56.4668 309.009 56.4668C310.595 56.4668 311.404 57.3327 311.436 59.0645V64H310.615V59.126C310.611 58.4652 310.467 57.9753 310.185 57.6562C309.907 57.3372 309.451 57.1777 308.817 57.1777C308.229 57.1868 307.733 57.3783 307.327 57.752C306.922 58.1211 306.696 58.5723 306.65 59.1055V64H305.83V59.0645C305.826 58.431 305.675 57.9593 305.379 57.6494C305.087 57.335 304.636 57.1777 304.025 57.1777C303.51 57.1777 303.068 57.3258 302.699 57.6221C302.33 57.9137 302.057 58.349 301.879 58.9277V64H301.059V56.6035H301.845ZM318.183 64C318.101 63.7676 318.048 63.4235 318.025 62.9678C317.738 63.3415 317.371 63.6309 316.925 63.8359C316.483 64.0365 316.013 64.1367 315.517 64.1367C314.806 64.1367 314.229 63.9385 313.787 63.542C313.35 63.1455 313.131 62.6442 313.131 62.0381C313.131 61.318 313.429 60.7484 314.026 60.3291C314.628 59.9098 315.464 59.7002 316.535 59.7002H318.019V58.8594C318.019 58.3307 317.854 57.916 317.526 57.6152C317.203 57.3099 316.729 57.1572 316.104 57.1572C315.535 57.1572 315.063 57.3031 314.689 57.5947C314.316 57.8864 314.129 58.2373 314.129 58.6475L313.309 58.6406C313.309 58.0527 313.582 57.5446 314.129 57.1162C314.676 56.6833 315.348 56.4668 316.146 56.4668C316.97 56.4668 317.62 56.6742 318.094 57.0889C318.572 57.499 318.818 58.0732 318.832 58.8115V62.3115C318.832 63.027 318.907 63.5625 319.058 63.918V64H318.183ZM315.612 63.4121C316.159 63.4121 316.647 63.2799 317.075 63.0156C317.508 62.7513 317.823 62.3981 318.019 61.9561V60.3291H316.556C315.74 60.3382 315.102 60.4886 314.642 60.7803C314.181 61.0674 313.951 61.4639 313.951 61.9697C313.951 62.3844 314.104 62.7285 314.409 63.002C314.719 63.2754 315.12 63.4121 315.612 63.4121ZM321.799 56.6035L321.826 57.8682C322.104 57.4124 322.451 57.0661 322.865 56.8291C323.28 56.5876 323.738 56.4668 324.239 56.4668C325.032 56.4668 325.622 56.6901 326.01 57.1367C326.397 57.5833 326.593 58.2533 326.598 59.1465V64H325.784V59.1396C325.78 58.4788 325.638 57.9867 325.36 57.6631C325.087 57.3395 324.647 57.1777 324.041 57.1777C323.535 57.1777 323.086 57.3372 322.694 57.6562C322.307 57.9707 322.02 58.3968 321.833 58.9346V64H321.02V56.6035H321.799ZM328.389 60.2334C328.389 59.085 328.644 58.1712 329.154 57.4922C329.669 56.8086 330.367 56.4668 331.246 56.4668C332.244 56.4668 333.005 56.861 333.529 57.6494V53.5H334.343V64H333.577L333.543 63.0156C333.019 63.763 332.249 64.1367 331.232 64.1367C330.38 64.1367 329.692 63.7949 329.168 63.1113C328.648 62.4232 328.389 61.4958 328.389 60.3291V60.2334ZM329.216 60.377C329.216 61.3203 329.405 62.0654 329.783 62.6123C330.161 63.1546 330.695 63.4258 331.383 63.4258C332.39 63.4258 333.105 62.9814 333.529 62.0928V58.6201C333.105 57.6585 332.395 57.1777 331.396 57.1777C330.708 57.1777 330.173 57.4489 329.79 57.9912C329.407 58.529 329.216 59.3242 329.216 60.377ZM336.045 60.1924C336.045 59.4814 336.182 58.8411 336.455 58.2715C336.733 57.7018 337.123 57.2598 337.624 56.9453C338.13 56.6263 338.702 56.4668 339.34 56.4668C340.324 56.4668 341.122 56.8132 341.732 57.5059C342.343 58.194 342.648 59.1077 342.648 60.2471V60.418C342.648 61.1335 342.509 61.7783 342.231 62.3525C341.958 62.9222 341.571 63.362 341.069 63.6719C340.568 63.9818 339.996 64.1367 339.354 64.1367C338.374 64.1367 337.576 63.7926 336.961 63.1045C336.35 62.4118 336.045 61.4958 336.045 60.3564V60.1924ZM336.865 60.418C336.865 61.3021 337.093 62.029 337.549 62.5986C338.009 63.1637 338.611 63.4463 339.354 63.4463C340.092 63.4463 340.689 63.1637 341.145 62.5986C341.605 62.029 341.835 61.2793 341.835 60.3496V60.1924C341.835 59.6273 341.73 59.11 341.521 58.6406C341.311 58.1712 341.017 57.8089 340.639 57.5537C340.26 57.2939 339.827 57.1641 339.34 57.1641C338.611 57.1641 338.016 57.4512 337.556 58.0254C337.095 58.5951 336.865 59.3424 336.865 60.2676V60.418ZM287.735 78C287.653 77.7676 287.601 77.4235 287.578 76.9678C287.291 77.3415 286.924 77.6309 286.478 77.8359C286.035 78.0365 285.566 78.1367 285.069 78.1367C284.358 78.1367 283.782 77.9385 283.34 77.542C282.902 77.1455 282.684 76.6442 282.684 76.0381C282.684 75.318 282.982 74.7484 283.579 74.3291C284.181 73.9098 285.017 73.7002 286.088 73.7002H287.571V72.8594C287.571 72.3307 287.407 71.916 287.079 71.6152C286.756 71.3099 286.282 71.1572 285.657 71.1572C285.088 71.1572 284.616 71.3031 284.242 71.5947C283.868 71.8864 283.682 72.2373 283.682 72.6475L282.861 72.6406C282.861 72.0527 283.135 71.5446 283.682 71.1162C284.229 70.6833 284.901 70.4668 285.698 70.4668C286.523 70.4668 287.173 70.6742 287.646 71.0889C288.125 71.499 288.371 72.0732 288.385 72.8115V76.3115C288.385 77.027 288.46 77.5625 288.61 77.918V78H287.735ZM285.165 77.4121C285.712 77.4121 286.2 77.2799 286.628 77.0156C287.061 76.7513 287.375 76.3981 287.571 75.9561V74.3291H286.108C285.293 74.3382 284.655 74.4886 284.194 74.7803C283.734 75.0674 283.504 75.4639 283.504 75.9697C283.504 76.3844 283.657 76.7285 283.962 77.002C284.272 77.2754 284.673 77.4121 285.165 77.4121ZM291.488 78H290.668V67.5H291.488V78ZM303.075 74.377C303.075 75.5299 302.82 76.446 302.31 77.125C301.799 77.7995 301.113 78.1367 300.252 78.1367C299.222 78.1367 298.443 77.7539 297.914 76.9883L297.88 78H297.114V67.5H297.928V71.6768C298.447 70.8701 299.217 70.4668 300.238 70.4668C301.113 70.4668 301.804 70.8018 302.31 71.4717C302.82 72.137 303.075 73.0645 303.075 74.2539V74.377ZM302.255 74.2334C302.255 73.2581 302.066 72.5062 301.688 71.9775C301.309 71.4443 300.776 71.1777 300.088 71.1777C299.564 71.1777 299.119 71.3076 298.755 71.5674C298.39 71.8226 298.115 72.1986 297.928 72.6953V76.0312C298.338 76.9609 299.062 77.4258 300.102 77.4258C300.776 77.4258 301.302 77.1592 301.681 76.626C302.063 76.0928 302.255 75.2952 302.255 74.2334ZM309.556 78C309.474 77.7676 309.421 77.4235 309.398 76.9678C309.111 77.3415 308.744 77.6309 308.298 77.8359C307.856 78.0365 307.386 78.1367 306.89 78.1367C306.179 78.1367 305.602 77.9385 305.16 77.542C304.723 77.1455 304.504 76.6442 304.504 76.0381C304.504 75.318 304.802 74.7484 305.399 74.3291C306.001 73.9098 306.837 73.7002 307.908 73.7002H309.392V72.8594C309.392 72.3307 309.228 71.916 308.899 71.6152C308.576 71.3099 308.102 71.1572 307.478 71.1572C306.908 71.1572 306.436 71.3031 306.062 71.5947C305.689 71.8864 305.502 72.2373 305.502 72.6475L304.682 72.6406C304.682 72.0527 304.955 71.5446 305.502 71.1162C306.049 70.6833 306.721 70.4668 307.519 70.4668C308.343 70.4668 308.993 70.6742 309.467 71.0889C309.945 71.499 310.191 72.0732 310.205 72.8115V76.3115C310.205 77.027 310.28 77.5625 310.431 77.918V78H309.556ZM306.985 77.4121C307.532 77.4121 308.02 77.2799 308.448 77.0156C308.881 76.7513 309.196 76.3981 309.392 75.9561V74.3291H307.929C307.113 74.3382 306.475 74.4886 306.015 74.7803C305.554 75.0674 305.324 75.4639 305.324 75.9697C305.324 76.3844 305.477 76.7285 305.782 77.002C306.092 77.2754 306.493 77.4121 306.985 77.4121ZM313.172 70.6035L313.199 71.8682C313.477 71.4124 313.824 71.0661 314.238 70.8291C314.653 70.5876 315.111 70.4668 315.612 70.4668C316.405 70.4668 316.995 70.6901 317.383 71.1367C317.77 71.5833 317.966 72.2533 317.971 73.1465V78H317.157V73.1396C317.153 72.4788 317.011 71.9867 316.733 71.6631C316.46 71.3395 316.02 71.1777 315.414 71.1777C314.908 71.1777 314.459 71.3372 314.067 71.6562C313.68 71.9707 313.393 72.3968 313.206 72.9346V78H312.393V70.6035H313.172ZM322.824 77.4463C323.394 77.4463 323.87 77.2868 324.253 76.9678C324.64 76.6442 324.85 76.2272 324.882 75.7168H325.668C325.645 76.168 325.504 76.5804 325.244 76.9541C324.984 77.3232 324.638 77.6126 324.205 77.8223C323.777 78.0319 323.316 78.1367 322.824 78.1367C321.854 78.1367 321.083 77.7995 320.514 77.125C319.949 76.4505 319.666 75.5436 319.666 74.4043V74.1582C319.666 73.429 319.794 72.7842 320.049 72.2236C320.304 71.6631 320.669 71.2301 321.143 70.9248C321.621 70.6195 322.179 70.4668 322.817 70.4668C323.629 70.4668 324.296 70.7083 324.82 71.1914C325.349 71.6745 325.632 72.3102 325.668 73.0986H324.882C324.845 72.5199 324.636 72.0527 324.253 71.6973C323.875 71.3418 323.396 71.1641 322.817 71.1641C322.079 71.1641 321.505 71.4307 321.095 71.9639C320.689 72.4971 320.486 73.2445 320.486 74.2061V74.4453C320.486 75.3887 320.689 76.1247 321.095 76.6533C321.505 77.182 322.081 77.4463 322.824 77.4463ZM326.857 74.1924C326.857 73.4814 326.994 72.8411 327.268 72.2715C327.546 71.7018 327.935 71.2598 328.437 70.9453C328.942 70.6263 329.514 70.4668 330.152 70.4668C331.137 70.4668 331.934 70.8132 332.545 71.5059C333.156 72.194 333.461 73.1077 333.461 74.2471V74.418C333.461 75.1335 333.322 75.7783 333.044 76.3525C332.771 76.9222 332.383 77.362 331.882 77.6719C331.381 77.9818 330.809 78.1367 330.166 78.1367C329.186 78.1367 328.389 77.7926 327.773 77.1045C327.163 76.4118 326.857 75.4958 326.857 74.3564V74.1924ZM327.678 74.418C327.678 75.3021 327.906 76.029 328.361 76.5986C328.822 77.1637 329.423 77.4463 330.166 77.4463C330.904 77.4463 331.501 77.1637 331.957 76.5986C332.417 76.029 332.647 75.2793 332.647 74.3496V74.1924C332.647 73.6273 332.543 73.11 332.333 72.6406C332.123 72.1712 331.829 71.8089 331.451 71.5537C331.073 71.2939 330.64 71.1641 330.152 71.1641C329.423 71.1641 328.828 71.4512 328.368 72.0254C327.908 72.5951 327.678 73.3424 327.678 74.2676V74.418Z" fill="#565D67"/>
<path d="M231.746 9.03464H211.307C209.049 9.03464 207.219 10.8648 207.219 13.1224V45.8245C207.219 48.0821 209.049 49.9123 211.307 49.9123H231.746C234.003 49.9123 235.834 48.0821 235.834 45.8245V13.1224C235.834 10.8648 234.003 9.03464 231.746 9.03464Z" stroke="#565D67" stroke-width="2" stroke-linecap="round" stroke-linejoin="round"/>
<circle cx="222.372" cy="44.4149" r="1.81915" stroke="#565D67" stroke-width="2"/>
<g clip-path="url(#clip1)">
<path d="M231.958 2.76196C224.172 2.76196 217.862 7.88819 217.862 14.2147C217.862 16.9458 219.041 19.4456 221.001 21.4113C220.313 24.1864 218.011 26.6586 217.983 26.6862C217.862 26.8128 217.829 27 217.901 27.1652C217.972 27.3304 218.127 27.4295 218.303 27.4295C221.953 27.4295 224.69 25.6785 226.044 24.5993C227.845 25.2766 229.844 25.6675 231.958 25.6675C239.744 25.6675 246.054 20.5413 246.054 14.2147C246.054 7.88819 239.744 2.76196 231.958 2.76196ZM224.921 17.7387H224.249C224.007 17.7387 223.809 17.5405 223.809 17.2982V16.4172C223.809 16.1749 224.007 15.9767 224.249 15.9767H224.927C225.257 15.9767 225.499 15.784 225.499 15.6133C225.499 15.5417 225.455 15.4646 225.384 15.4041L224.178 14.3689C223.71 13.9725 223.446 13.4053 223.446 12.8217C223.446 11.6489 224.492 10.6963 225.78 10.6963H226.452C226.694 10.6963 226.892 10.8945 226.892 11.1368V12.0178C226.892 12.2601 226.694 12.4583 226.452 12.4583H225.775C225.444 12.4583 225.202 12.651 225.202 12.8217C225.202 12.8933 225.246 12.9704 225.318 13.0309L226.523 14.0661C226.991 14.4625 227.256 15.0297 227.256 15.6133C227.261 16.7861 226.21 17.7387 224.921 17.7387ZM235.482 17.2982C235.482 17.5405 235.284 17.7387 235.041 17.7387H234.16C233.918 17.7387 233.72 17.5405 233.72 17.2982V13.543L232.354 16.6154C232.195 16.9403 231.727 16.9403 231.567 16.6154L230.196 13.543V17.2982C230.196 17.5405 229.998 17.7387 229.756 17.7387H228.875C228.632 17.7387 228.434 17.5405 228.434 17.2982V11.5718C228.434 11.0873 228.831 10.6908 229.315 10.6908H230.196C230.532 10.6908 230.835 10.878 230.983 11.1754L231.958 13.1245L232.933 11.1754C233.081 10.878 233.39 10.6908 233.72 10.6908H234.601C235.086 10.6908 235.482 11.0873 235.482 11.5718V17.2982ZM238.141 17.7387H237.464C237.222 17.7387 237.024 17.5405 237.024 17.2982V16.4172C237.024 16.1749 237.222 15.9767 237.464 15.9767H238.141C238.472 15.9767 238.714 15.784 238.714 15.6133C238.714 15.5417 238.67 15.4646 238.598 15.4041L237.393 14.3689C236.925 13.9725 236.66 13.4053 236.66 12.8217C236.66 11.6489 237.706 10.6963 238.995 10.6963H239.667C239.909 10.6963 240.107 10.8945 240.107 11.1368V12.0178C240.107 12.2601 239.909 12.4583 239.667 12.4583H238.989C238.659 12.4583 238.417 12.651 238.417 12.8217C238.417 12.8933 238.461 12.9704 238.532 13.0309L239.738 14.0661C240.206 14.4625 240.471 15.0297 240.471 15.6133C240.476 16.7861 239.43 17.7387 238.141 17.7387Z" fill="#565D67"/>
</g>
<path d="M111.387 9.83334H148.932C151.513 9.83334 153.625 12.0458 153.625 14.75V44.25C153.625 46.9542 151.513 49.1667 148.932 49.1667H111.387C108.805 49.1667 106.693 46.9542 106.693 44.25V14.75C106.693 12.0458 108.805 9.83334 111.387 9.83334Z" stroke="#565D67" stroke-width="2" stroke-linecap="round" stroke-linejoin="round"/>
<path d="M153.625 14.75L130.159 31.9583L106.693 14.75" stroke="#565D67" stroke-width="2" stroke-linecap="round" stroke-linejoin="round"/>
<path d="M313.338 15C315.047 15.3811 316.618 16.3365 317.849 17.7439C319.081 19.1512 319.917 20.9465 320.25 22.9L313.338 15ZM313.338 7C316.889 7.45087 320.2 9.26835 322.728 12.154C325.257 15.0397 326.851 18.822 327.25 22.88L313.338 7ZM325.5 38.84V44.84C325.502 45.397 325.402 45.9483 325.207 46.4587C325.012 46.969 324.725 47.4272 324.366 47.8037C324.007 48.1803 323.583 48.467 323.121 48.6454C322.66 48.8239 322.17 48.8901 321.685 48.84C316.3 48.1713 311.127 46.0683 306.583 42.7C302.354 39.6293 298.769 35.5323 296.083 30.7C293.125 25.4824 291.284 19.542 290.71 13.36C290.666 12.8069 290.724 12.2495 290.879 11.7232C291.034 11.197 291.283 10.7134 291.611 10.3032C291.938 9.89311 292.337 9.56542 292.782 9.34104C293.226 9.11667 293.707 9.00052 294.193 9H299.443C300.292 8.99045 301.115 9.33416 301.759 9.96706C302.403 10.6 302.824 11.4789 302.943 12.44C303.164 14.3601 303.575 16.2455 304.168 18.06C304.403 18.7758 304.454 19.5538 304.314 20.3018C304.175 21.0497 303.851 21.7362 303.38 22.28L301.158 24.82C303.649 29.8271 307.276 33.9729 311.658 36.82L313.88 34.28C314.356 33.7423 314.957 33.3717 315.611 33.2122C316.265 33.0527 316.946 33.1109 317.573 33.38C319.16 34.0571 320.81 34.5268 322.49 34.78C323.34 34.9171 324.116 35.4064 324.671 36.155C325.226 36.9036 325.521 37.8591 325.5 38.84Z" stroke="#565D67" stroke-width="2" stroke-linecap="round" stroke-linejoin="round"/>
<defs>
<clipPath id="clip0">
<rect width="47.2972" height="40" fill="white" transform="translate(9 9)"/>
</clipPath>
<clipPath id="clip1">
<rect width="28.1915" height="28.1915" fill="white" transform="translate(217.862 1)"/>
</clipPath>
</defs>
</svg>
